<?xml version="1.0" encoding="UTF-8" standalone="no"?>
<!-- Created with Inkscape (http://www.inkscape.org/) -->

<svg
   xmlns:dc="http://purl.org/dc/elements/1.1/"
   xmlns:cc="http://creativecommons.org/ns#"
   xmlns:rdf="http://www.w3.org/1999/02/22-rdf-syntax-ns#"
   xmlns:svg="http://www.w3.org/2000/svg"
   xmlns="http://www.w3.org/2000/svg"
   xmlns:sodipodi="http://sodipodi.sourceforge.net/DTD/sodipodi-0.dtd"
   xmlns:inkscape="http://www.inkscape.org/namespaces/inkscape"
   id="svg2"
   sodipodi:version="0.32"
   inkscape:version="0.48.1 r9760"
   width="132.23189"
   height="162.71477"
   version="1.0"
   sodipodi:docname="llama.svg"
   inkscape:output_extension="org.inkscape.output.svg.inkscape">
  <sodipodi:namedview
     inkscape:window-height="1000"
     inkscape:window-width="1280"
     inkscape:pageshadow="2"
     inkscape:pageopacity="0.0"
     guidetolerance="10.0"
     gridtolerance="10.0"
     objecttolerance="10.0"
     borderopacity="1.0"
     bordercolor="#666666"
     pagecolor="#ffffff"
     id="base"
     showgrid="true"
     inkscape:zoom="4.8670426"
     inkscape:cx="66.121451"
     inkscape:cy="80.549631"
     inkscape:window-x="0"
     inkscape:window-y="24"
     inkscape:current-layer="svg2"
     inkscape:document-units="in"
     units="mm"
     fit-margin-top="1"
     fit-margin-right="1"
     fit-margin-bottom="1"
     fit-margin-left="1"
     inkscape:window-maximized="1">
    <inkscape:grid
       empspacing="4"
       spacingy="0.125in"
       spacingx="0.125in"
       enabled="true"
       visible="true"
       units="in"
       id="grid2395"
       type="xygrid"
       snapvisiblegridlinesonly="true" />
  </sodipodi:namedview>
  <metadata
     id="metadata7">
    <rdf:RDF>
      <cc:Work
         rdf:about="">
        <dc:format>image/svg+xml</dc:format>
        <dc:type
           rdf:resource="http://purl.org/dc/dcmitype/StillImage" />
      </cc:Work>
    </rdf:RDF>
  </metadata>
  <defs
     id="defs5">
    <marker
       style="overflow:visible"
       id="Arrow2Send"
       refX="0"
       refY="0"
       orient="auto"
       inkscape:stockid="Arrow2Send">
      <path
         transform="matrix(-0.3,0,0,-0.3,0.69,0)"
         d="M 8.7185878,4.0337352 -2.2072895,0.01601326 8.7185884,-4.0017078 c -1.7454984,2.3720609 -1.7354408,5.6174519 -6e-7,8.035443 z"
         style="font-size:12px;fill-rule:evenodd;stroke-width:0.625;stroke-linejoin:round"
         id="path3258"
         inkscape:connector-curvature="0" />
    </marker>
    <marker
       style="overflow:visible"
       id="Arrow2Mstart"
       refX="0"
       refY="0"
       orient="auto"
       inkscape:stockid="Arrow2Mstart">
      <path
         transform="scale(0.6,0.6)"
         d="M 8.7185878,4.0337352 -2.2072895,0.01601326 8.7185884,-4.0017078 c -1.7454984,2.3720609 -1.7354408,5.6174519 -6e-7,8.035443 z"
         style="font-size:12px;fill-rule:evenodd;stroke-width:0.625;stroke-linejoin:round"
         id="path3249"
         inkscape:connector-curvature="0" />
    </marker>
    <marker
       style="overflow:visible"
       id="Arrow1Send"
       refX="0"
       refY="0"
       orient="auto"
       inkscape:stockid="Arrow1Send">
      <path
         transform="matrix(-0.2,0,0,-0.2,-1.2,0)"
         style="fill-rule:evenodd;stroke:#000000;stroke-width:1pt;marker-start:none"
         d="M 0,0 5,-5 -12.5,0 5,5 0,0 z"
         id="path3189"
         inkscape:connector-curvature="0" />
    </marker>
    <marker
       style="overflow:visible"
       id="Arrow2Lend"
       refX="0"
       refY="0"
       orient="auto"
       inkscape:stockid="Arrow2Lend">
      <path
         transform="matrix(-1.1,0,0,-1.1,-1.1,0)"
         d="M 8.7185878,4.0337352 -2.2072895,0.01601326 8.7185884,-4.0017078 c -1.7454984,2.3720609 -1.7354408,5.6174519 -6e-7,8.035443 z"
         style="font-size:12px;fill-rule:evenodd;stroke-width:0.625;stroke-linejoin:round"
         id="path3195"
         inkscape:connector-curvature="0" />
    </marker>
    <marker
       style="overflow:visible"
       id="Arrow2Mend"
       refX="0"
       refY="0"
       orient="auto"
       inkscape:stockid="Arrow2Mend">
      <path
         transform="scale(-0.6,-0.6)"
         d="M 8.7185878,4.0337352 -2.2072895,0.01601326 8.7185884,-4.0017078 c -1.7454984,2.3720609 -1.7354408,5.6174519 -6e-7,8.035443 z"
         style="font-size:12px;fill-rule:evenodd;stroke-width:0.625;stroke-linejoin:round"
         id="path3201"
         inkscape:connector-curvature="0" />
    </marker>
    <marker
       style="overflow:visible"
       id="Arrow1Mstart"
       refX="0"
       refY="0"
       orient="auto"
       inkscape:stockid="Arrow1Mstart">
      <path
         transform="matrix(0.4,0,0,0.4,4,0)"
         style="fill-rule:evenodd;stroke:#000000;stroke-width:1pt;marker-start:none"
         d="M 0,0 5,-5 -12.5,0 5,5 0,0 z"
         id="path3180"
         inkscape:connector-curvature="0" />
    </marker>
    <inkscape:perspective
       id="perspective9"
       inkscape:persp3d-origin="372.04724 : 350.78739 : 1"
       inkscape:vp_z="744.09448 : 526.18109 : 1"
       inkscape:vp_y="0 : 1000 : 0"
       inkscape:vp_x="0 : 526.18109 : 1"
       sodipodi:type="inkscape:persp3d" />
    <marker
       style="overflow:visible"
       id="Arrow2LendH"
       refX="0"
       refY="0"
       orient="auto"
       inkscape:stockid="Arrow2LendH">
      <path
         transform="matrix(-1.1,0,0,-1.1,-1.1,0)"
         d="M 8.7185878,4.0337352 -2.2072895,0.01601326 8.7185884,-4.0017078 c -1.7454984,2.3720609 -1.7354408,5.6174519 -6e-7,8.035443 z"
         style="font-size:12px;fill:#000000;fill-rule:evenodd;stroke:#000000;stroke-width:0.625;stroke-linejoin:round"
         id="path11517"
         inkscape:connector-curvature="0" />
    </marker>
    <marker
       style="overflow:visible"
       id="Arrow1SendJ"
       refX="0"
       refY="0"
       orient="auto"
       inkscape:stockid="Arrow1SendJ">
      <path
         transform="matrix(-0.2,0,0,-0.2,-1.2,0)"
         style="fill:#7f7f7f;fill-rule:evenodd;stroke:#7f7f7f;stroke-width:1pt;marker-start:none"
         d="M 0,0 5,-5 -12.5,0 5,5 0,0 z"
         id="path11606"
         inkscape:connector-curvature="0" />
    </marker>
    <marker
       style="overflow:visible"
       id="Arrow1SendJG"
       refX="0"
       refY="0"
       orient="auto"
       inkscape:stockid="Arrow1SendJG">
      <path
         transform="matrix(-0.2,0,0,-0.2,-1.2,0)"
         style="fill:#a6a6a6;fill-rule:evenodd;stroke:#a6a6a6;stroke-width:1pt;marker-start:none"
         d="M 0,0 5,-5 -12.5,0 5,5 0,0 z"
         id="path13005"
         inkscape:connector-curvature="0" />
    </marker>
    <marker
       style="overflow:visible"
       id="Arrow2Sendl"
       refX="0"
       refY="0"
       orient="auto"
       inkscape:stockid="Arrow2Sendl">
      <path
         transform="matrix(-0.3,0,0,-0.3,0.69,0)"
         d="M 8.7185878,4.0337352 -2.2072895,0.01601326 8.7185884,-4.0017078 c -1.7454984,2.3720609 -1.7354408,5.6174519 -6e-7,8.035443 z"
         style="font-size:12px;fill:#a6a6a6;fill-rule:evenodd;stroke:#a6a6a6;stroke-width:0.625;stroke-linejoin:round"
         id="path6303"
         inkscape:connector-curvature="0" />
    </marker>
  </defs>
  <path
     sodipodi:type="arc"
     style="fill:#000000;fill-opacity:1;stroke:#000000;stroke-width:0.625;stroke-linecap:butt;stroke-linejoin:bevel;stroke-miterlimit:4;stroke-opacity:1;stroke-dasharray:none;stroke-dashoffset:0"
     id="path3701"
     sodipodi:cx="236.25"
     sodipodi:cy="52.1441"
     sodipodi:rx="0"
     sodipodi:ry="0.10273179"
     d="m 236.25,52.1441 a 0,0.10273179 0 1 1 0,0 0,0.10273179 0 1 1 0,0 z"
     transform="translate(-140.3435,-37.612943)" />
  <g
     id="g3709"
     transform="translate(-140.3435,-37.612943)">
    <g
       id="g3532">
      <path
         sodipodi:nodetypes="cccccccccccccccccccccccccccccccscccccccccc"
         id="path3166"
         d="m 161.68725,42.908716 c -3.421,1.67885 -4.222,6.23675 -2.897,9.537275 0.62975,2.047275 1.86825,6.862633 0,8.222933 -2.637,3.024825 -0.8898,4.570201 -4.2753,6.831076 -2.163,1.196125 -6.65445,2.062199 -8.26495,4.275424 -1.475,1.781425 0.0867,1.15367 0.3655,3.31992 -0.0553,2.0314 0.35325,4.7269 2.59325,5.439025 7.4215,2.231275 6.90275,0.639106 14.4355,0.502031 2.13575,-0.402275 5.06625,-0.09225 5.81575,2.3524 0.792,2.2967 0.004,4.666625 -0.0373,7.001475 0.151,1.9501 0.9645,3.782375 1.30525,5.709025 3.36475,14.0303 6.33,28.1526 9.494,42.22833 2.16575,10.56072 2.0945,21.45279 1.12825,32.14662 -0.3195,3.19192 -0.766,6.37142 -1.35025,9.52575 -1.02,1.56243 -3.42225,2.01763 -3.74975,4.03987 1.00975,1.98703 -0.005,4.04448 -2.15075,4.73288 -3.0515,1.61822 0.2785,4.69458 2.47675,5.00787 2.38575,0.93713 5.211,1.08313 7.5325,-0.11957 1.65175,-1.89293 2.82,-4.27297 4.9835,-5.6694 3.5385,-3.31165 5.8855,-7.8761 6.328,-12.71763 0.86025,-4.86317 1.94475,-6.21451 3.55675,-10.90981 1.22875,-2.27083 4.078,-2.5607 6.3845,-2.69848 8.6725,-1.60995 33.30775,-0.0345 38.64375,5.24248 1.8755,2.93067 1.51875,10.31572 0.18775,13.74237 -1.64512,8.7923 -0.516,3.46555 -6.957,8.30287 -0.39125,2.11676 4.38,5.354 5.98925,5.60278 3.56375,0.58398 7.72475,0.67723 11.25,0 2.2435,-1.2298 1.75125,-8.82671 4.27475,-9.75643 4.94351,-8.48034 0,-3.84391 0,-16.0498 0.17425,-8.82131 2.25425,-14.77605 1.30875,-23.50038 -0.267,-2.3858 -0.684,-7.93907 -1.30875,-10.24962 -3.31551,-5.62049 20.85902,-4.63423 -0.0655,-16.02733 -9.83525,-5.35516 -20.9372,-0.51472 -33.6845,0.43962 -6.21048,-0.5336 -23.44581,-0.10759 -27.12596,-6.91229 -6.62404,-6.98311 -3.72433,-4.50752 -6.62404,-11.25 -4.03633,-15.841528 -2.06611,-21.200477 -6.06165,-33.75 -1.76475,-3.3786 -8.86301,-7.6297 -8.00601,-11.25 3.27441,-1.32145 14.06766,-7.814503 5.36516,-8.1774 -6.90219,-2.193581 -9.12053,5.22675 -13.7975,8.1774 -1.94625,0.589675 -0.4785,-1.505739 -1.854,-3.434764 -0.5575,-1.5708 -1.04875,-3.2198 -2.1015,-4.571625 -1.294,-1.9198 -0.80775,-6.22777 -3.10725,-5.334895 z"
         style="fill:none;stroke:#000000;stroke-width:3.5;stroke-linecap:butt;stroke-linejoin:miter;stroke-miterlimit:4;stroke-opacity:1;stroke-dasharray:none"
         inkscape:connector-curvature="0" />
      <path
         style="fill:#000000;fill-opacity:1;stroke:#000000;stroke-width:0.625;stroke-linecap:butt;stroke-linejoin:bevel;stroke-miterlimit:4;stroke-opacity:1;stroke-dasharray:none;stroke-dashoffset:0"
         id="path3422"
         d="m 205.327,117.34397 c 0.44095,0.26172 2.08293,-1.21786 1.92516,-0.72755 -0.4697,1.45974 0.48383,0.41209 0.72631,0.61748 0.53743,0.54052 0.26802,2.24716 0.54446,2.95983 0.26992,0.56413 1.28294,0.008 1.46077,0.61147 0.18504,0.7298 0.21329,1.48449 0.23348,2.23326 0.0126,0.73698 0.008,1.47412 0.006,2.21117 -0.006,0.70253 -0.26124,1.35586 -0.50744,2.00215 -0.23447,0.5611 -0.61471,1.03831 -0.94298,1.54511 -0.33644,0.4644 -0.63815,0.95807 -0.89111,1.47298 l -4.94562,2.19753 c 0.33643,-0.4785 0.52576,-1.05569 0.87544,-1.5315 0.37854,-0.43702 0.67097,-0.96908 0.98553,-1.44876 0.32508,-0.54233 0.49651,-1.17927 0.62603,-1.79331 0.002,-0.73324 0.007,-1.4665 2.9e-4,-2.19973 -0.0116,-0.70506 -0.022,-1.41644 -0.17487,-2.1081 -0.163,-0.59415 -0.47333,-1.10485 -0.7174,-1.66684 -0.21955,-0.63172 -0.63207,-1.17374 -1.10298,-1.64312 -0.58617,-0.49068 -4.45611,-7.40727 -5.21177,-7.57604 l 7.11047,4.84397 z"
         sodipodi:nodetypes="cscccsscccccccsccccc"
         inkscape:connector-curvature="0" />
      <path
         style="fill:#000000;fill-opacity:1;stroke:#000000;stroke-width:0.625;stroke-linecap:butt;stroke-linejoin:bevel;stroke-miterlimit:4;stroke-opacity:1;stroke-dasharray:none;stroke-dashoffset:0"
         id="path3426"
         d="m 211.36266,118.44529 c 0.68388,0.25774 1.35465,0.55498 2.04732,0.79077 0.71803,0.27815 1.39828,0.60423 1.92928,1.17135 0.53026,0.46811 0.78876,1.11947 1.077,1.74581 0.27402,0.63466 0.33308,1.323 0.37226,2.00473 0.0289,0.72846 0.0236,1.45773 0.0221,2.1866 0.0272,0.67866 -0.003,1.34107 -0.2671,1.97253 -0.18907,0.52244 -0.49452,0.97337 -0.81798,1.41839 -0.28609,0.32355 -0.57069,0.64789 -0.88596,0.94356 l -4.99504,2.0946 c 0.27069,-0.34096 0.62873,-0.59095 0.88618,-0.94304 0.38975,-0.33212 0.69867,-0.79455 0.88963,-1.26671 0.33533,-0.66353 0.44565,-0.99611 0.39011,-1.77489 0.002,-0.71969 0.007,-1.4396 -0.0134,-2.15909 -0.0266,-0.61535 -0.0556,-1.24169 -0.28762,-1.82065 -0.25526,-0.57392 -0.47386,-1.16476 -0.96506,-1.58598 -0.51742,-0.47268 -1.15181,-0.7367 -1.80463,-0.97407 -0.66576,-0.26225 -1.32561,-0.55367 -2.02916,-0.70165 l 4.45212,-3.10226 z"
         inkscape:connector-curvature="0" />
      <path
         style="fill:#000000;fill-opacity:1;stroke:#000000;stroke-width:0.625;stroke-linecap:butt;stroke-linejoin:bevel;stroke-miterlimit:4;stroke-opacity:1;stroke-dasharray:none;stroke-dashoffset:0"
         id="path3428"
         d="m 220.53338,119.73095 c 0.54195,0.63274 1.06533,1.27614 1.61954,1.8991 0.48977,0.54426 0.8308,1.13888 1.1046,1.81209 0.20259,0.67136 0.56202,1.27104 0.85028,1.90437 0.20569,0.57377 0.47287,1.12221 0.69954,1.6873 0.23315,0.63374 0.49614,1.24345 0.63874,1.90666 0.0942,0.66071 -0.0451,1.29849 -0.35738,1.88096 l -8.19576,5.3096 c 0.2114,-0.17602 0.45418,-0.24487 0.66083,-0.42286 0.0688,-0.0593 0.11672,-0.1408 0.18758,-0.1976 0.0683,-0.0547 0.15057,-0.0892 0.22586,-0.13379 16.07652,-9.42409 -2.37932,1.40487 0.4493,-0.29083 1.60534,-0.96238 3.17297,-1.99959 4.85345,-2.82376 1.52217,-0.74652 -2.91872,1.72574 -4.37716,2.59017 -0.14321,0.0849 0.5989,-0.31877 0.39277,-0.30846 0.27688,-0.5168 0.59445,-1.00575 0.86885,-1.52208 0.1,-0.16519 0.23057,-0.31141 0.32237,-0.48127 0.17174,-0.31776 0.15329,-0.70896 0.21066,-1.05526 -0.11792,-0.63528 -0.36666,-1.2124 -0.59251,-1.81405 -0.23494,-0.55609 -0.49533,-1.10248 -0.68907,-1.67503 -0.27938,-0.64149 -0.64238,-1.24565 -0.85545,-1.91638 -0.26071,-0.60962 -0.54393,-1.17224 -0.99551,-1.67187 -0.52404,-0.60068 -3.20858,-3.07363 -3.80491,-3.60055 l 6.78338,-1.07646 z"
         sodipodi:nodetypes="csccccccsssssscssccccscc"
         inkscape:connector-curvature="0" />
      <path
         d="m 242.51659,118.19876 c -0.44095,0.26172 -2.41575,-1.02314 -2.83756,-0.72755 -0.26023,0.18237 -0.48383,0.41209 -0.72631,0.61748 -0.53743,0.54052 -0.99795,1.15227 -1.27439,1.86494 -0.26992,0.56413 -0.55301,1.10339 -0.73084,1.70636 -0.18504,0.7298 -0.21329,1.48449 -0.23348,2.23326 -0.0126,0.73698 -0.008,1.47412 -0.006,2.21117 0.006,0.70253 0.26124,1.35586 0.50744,2.00215 0.23447,0.5611 0.61471,1.03831 0.94298,1.54511 0.33644,0.4644 0.63815,0.95807 0.89111,1.47298 l 4.94562,2.19753 c -0.33643,-0.4785 -0.52576,-1.05569 -0.87544,-1.5315 -0.37854,-0.43702 -0.67097,-0.96908 -0.98553,-1.44876 -0.32508,-0.54233 -0.49651,-1.17927 -0.62603,-1.79331 -0.002,-0.73324 -0.007,-1.4665 -2.9e-4,-2.19973 0.0116,-0.70506 0.022,-1.41644 0.17487,-2.1081 0.163,-0.59415 0.47333,-1.10485 0.7174,-1.66684 0.21955,-0.63172 0.63207,-1.17374 1.10298,-1.64312 0.58617,-0.49068 3.24145,-3.2943 3.99711,-3.46307 l -4.98341,0.731 z"
         id="path3436"
         style="fill:#000000;fill-opacity:1;stroke:#000000;stroke-width:0.625;stroke-linecap:butt;stroke-linejoin:bevel;stroke-miterlimit:4;stroke-opacity:1;stroke-dasharray:none;stroke-dashoffset:0"
         inkscape:transform-center-x="-22.991657"
         inkscape:transform-center-y="34.17576"
         sodipodi:nodetypes="cscccsscccccccsccccc"
         inkscape:connector-curvature="0" />
      <path
         d="m 236.25,118.50894 c -0.68388,0.25774 -2.03612,1.34612 -2.72879,1.58191 -0.71803,0.27815 -5.77784,-0.1257 -6.30884,0.44142 -0.53026,0.46811 3.5908,1.8494 3.30256,2.47574 -0.27402,0.63466 -0.33308,1.323 -0.37226,2.00473 -0.0289,0.72846 -0.0236,1.45773 -0.0221,2.1866 -0.0272,0.67866 0.003,1.34107 0.2671,1.97253 0.18907,0.52244 0.49452,0.97337 0.81798,1.41839 0.28609,0.32355 0.57069,0.64789 0.88596,0.94356 l 4.99504,2.0946 c -0.27069,-0.34096 -0.62873,-0.59095 -0.88618,-0.94304 -0.38975,-0.33212 -0.69867,-0.79455 -0.88963,-1.26671 -0.33533,-0.66353 -0.44565,-0.99611 -0.39011,-1.77489 -0.002,-0.71969 -0.007,-1.4396 0.0134,-2.15909 0.0266,-0.61535 0.0556,-1.24169 0.28762,-1.82065 0.25526,-0.57392 0.47386,-1.16476 0.96506,-1.58598 0.51742,-0.47268 2.10118,-3.90126 2.754,-4.13863 0.66576,-0.26225 0.37624,2.61089 1.07979,2.46291 l -3.77065,-3.8934 z"
         id="path3438"
         style="fill:#000000;fill-opacity:1;stroke:#000000;stroke-width:0.625;stroke-linecap:butt;stroke-linejoin:bevel;stroke-miterlimit:4;stroke-opacity:1;stroke-dasharray:none;stroke-dashoffset:0"
         inkscape:transform-center-x="-16.951094"
         inkscape:transform-center-y="35.60946"
         sodipodi:nodetypes="ccccsccccccccsccccc"
         inkscape:connector-curvature="0" />
      <path
         d="m 226.39781,120.58574 c -0.54195,0.63274 -4.71497,-0.54868 -5.26918,0.0743 -0.48977,0.54426 2.81884,2.9637 2.54504,3.63691 -0.20259,0.67136 -0.56202,1.27104 -0.85028,1.90437 -0.20569,0.57377 -0.47287,1.12221 -0.69954,1.6873 -0.23315,0.63374 -0.49614,1.24345 -0.63874,1.90666 -0.0942,0.66071 0.0451,1.29849 0.35738,1.88096 0.28856,0.50506 0.56099,1.02006 0.86125,1.5181 l 7.33451,3.7915 c -0.2114,-0.17602 -0.45418,-0.24487 -0.66083,-0.42286 -0.0688,-0.0593 -0.11672,-0.1408 -0.18758,-0.1976 -0.0683,-0.0547 -0.15057,-0.0892 -0.22586,-0.13379 -16.07652,-9.42409 2.37932,1.40487 -0.4493,-0.29083 -1.60534,-0.96238 -3.17297,-1.99959 -4.85345,-2.82376 -1.52217,-0.74652 2.91872,1.72574 4.37716,2.59017 0.14321,0.0849 -0.5989,-0.31877 -0.39277,-0.30846 -0.27688,-0.5168 -0.59445,-1.00575 -0.86885,-1.52208 -0.1,-0.16519 -0.23057,-0.31141 -0.32237,-0.48127 -0.17174,-0.31776 -0.15329,-0.70896 -0.21066,-1.05526 0.11792,-0.63528 0.36666,-1.2124 0.59251,-1.81405 0.23494,-0.55609 0.49533,-1.10248 0.68907,-1.67503 0.27938,-0.64149 0.64238,-1.24565 0.85545,-1.91638 0.26071,-0.60962 0.54393,-1.17224 0.99551,-1.67187 0.52404,-0.60068 1.01226,-1.24881 1.60859,-1.77573 l -4.58706,-2.90128 z"
         id="path3440"
         style="fill:#000000;fill-opacity:1;stroke:#000000;stroke-width:0.625;stroke-linecap:butt;stroke-linejoin:bevel;stroke-miterlimit:4;stroke-opacity:1;stroke-dasharray:none;stroke-dashoffset:0"
         inkscape:transform-center-x="-8.104985"
         inkscape:transform-center-y="37.93099"
         sodipodi:nodetypes="cscccccccsssssscssccccscc"
         inkscape:connector-curvature="0" />
      <path
         style="fill:#000000;fill-opacity:1;stroke:#000000;stroke-width:0.625;stroke-linecap:butt;stroke-linejoin:bevel;stroke-miterlimit:4;stroke-opacity:1;stroke-dasharray:none;stroke-dashoffset:0"
         id="path3460"
         d="m 178.60967,126.84162 c -0.12535,0.84626 1.59166,1.21432 1.53378,2.0677 -0.0471,0.7799 -0.0534,1.5614 -0.0572,2.34246 -0.0443,0.66759 0.13846,1.31274 0.24364,1.96527 0.0923,0.58547 0.30422,1.13773 0.53539,1.6795 0.1758,0.56953 0.30163,1.14174 0.57822,1.67429 0.26632,0.63034 0.69609,1.13267 1.22102,1.56054 0.49523,0.3179 0.97764,0.65266 1.44891,1.00506 0.21391,0.21672 0.45428,0.39893 0.70355,0.57178 l 5.02033,2.00806 c -0.23276,-0.20332 -0.49037,-0.32957 -0.72433,-0.53119 -0.40183,-0.45307 -0.93497,-0.74071 -1.41698,-1.09644 -0.58557,-0.28135 -1.0178,-0.71667 -1.33817,-1.27353 -0.21671,-0.54281 -0.55419,-1.02538 -0.58721,-1.63807 -0.1783,-0.53639 -0.45707,-1.02385 -0.59687,-1.57659 -0.0776,-0.64024 -0.27778,-1.26039 -0.28991,-1.90271 -0.0721,-4.98737 -4.63708,-8.71249 -6.66952,-13.27606 l 0.39536,6.41993 z"
         sodipodi:nodetypes="cscscccccccccccccc"
         inkscape:connector-curvature="0" />
      <path
         sodipodi:nodetypes="cscscccccccccccccc"
         d="m 180.84261,140.61615 c -0.12535,0.84626 1.59166,1.21432 1.53378,2.0677 -0.0471,0.7799 -0.0534,1.5614 -0.0572,2.34246 -0.0443,0.66759 0.13846,1.31274 0.24364,1.96527 0.0923,0.58547 0.30422,1.13773 0.53539,1.6795 0.1758,0.56953 0.30163,1.14174 0.57822,1.67429 0.26632,0.63034 0.69609,1.13267 1.22102,1.56054 0.49523,0.3179 0.97764,0.65266 1.44891,1.00506 0.21391,0.21672 0.45428,0.39893 0.70355,0.57178 l 5.02033,2.00806 c -0.23276,-0.20332 -0.49037,-0.32957 -0.72433,-0.53119 -0.40183,-0.45307 -0.93497,-0.74071 -1.41698,-1.09644 -0.58557,-0.28135 -1.0178,-0.71667 -1.33817,-1.27353 -0.21671,-0.54281 -0.55419,-1.02538 -0.58721,-1.63807 -0.1783,-0.53639 -0.45707,-1.02385 -0.59687,-1.57659 -0.0776,-0.64024 -0.27778,-1.26039 -0.28991,-1.90271 -0.0721,-4.98737 -4.63708,-8.71249 -6.66952,-13.27606 l 0.39536,6.41993 z"
         id="path3470"
         style="fill:#000000;fill-opacity:1;stroke:#000000;stroke-width:0.625;stroke-linecap:butt;stroke-linejoin:bevel;stroke-miterlimit:4;stroke-opacity:1;stroke-dasharray:none;stroke-dashoffset:0"
         inkscape:connector-curvature="0" />
      <path
         sodipodi:nodetypes="cscscccccccccccccc"
         d="m 173.09986,108.87534 c -0.12535,0.84626 1.59166,1.21432 1.53378,2.0677 -0.0471,0.7799 -0.0534,1.5614 -0.0572,2.34246 -0.0443,0.66759 0.13846,1.31274 0.24364,1.96527 0.0923,0.58547 0.30422,1.13773 0.53539,1.6795 0.1758,0.56953 0.30163,1.14174 0.57822,1.67429 0.26632,0.63034 0.69609,1.13267 1.22102,1.56054 0.49523,0.3179 0.97764,0.65266 1.44891,1.00506 0.21391,0.21672 0.45428,0.39893 0.70355,0.57178 l 5.02033,2.00806 c -0.23276,-0.20332 -0.49037,-0.32957 -0.72433,-0.53119 -0.40183,-0.45307 -0.93497,-0.74071 -1.41698,-1.09644 -0.58557,-0.28135 -1.0178,-0.71667 -1.33817,-1.27353 -0.21671,-0.54281 -0.55419,-1.02538 -0.58721,-1.63807 -0.1783,-0.53639 -0.45707,-1.02385 -0.59687,-1.57659 -0.0776,-0.64024 -0.27778,-1.26039 -0.28991,-1.90271 -0.0721,-4.98737 -4.63708,-8.71249 -6.66952,-13.27606 l 0.39536,6.41993 z"
         id="path3481"
         style="fill:#000000;fill-opacity:1;stroke:#000000;stroke-width:0.625;stroke-linecap:butt;stroke-linejoin:bevel;stroke-miterlimit:4;stroke-opacity:1;stroke-dasharray:none;stroke-dashoffset:0"
         inkscape:connector-curvature="0" />
      <path
         style="fill:#000000;fill-opacity:1;stroke:#000000;stroke-width:0.80483049;stroke-linecap:butt;stroke-linejoin:bevel;stroke-miterlimit:4;stroke-opacity:1;stroke-dasharray:none;stroke-dashoffset:0"
         d="m 176.44865,123.2602 c 0.11801,1.87989 3.41233,2.38583 3.55135,4.26412 0.33547,1.08066 -1.63502,3.28792 -0.56378,4.19047 1.40023,1.04337 3.38061,1.84451 5.59583,2.38365 1.30468,0.35416 2.62318,0.69882 3.85767,1.1163 -2.10446,-0.6065 -4.16944,-1.24837 -6.26177,-1.86578 1.43147,0.65183 2.75067,1.42403 4.53566,1.82018 1.12358,0.12967 2.33802,0.044 3.37613,0.35332 1.25155,0.26735 -0.4978,-0.3115 -0.78909,-0.45604 -1.43385,-0.57444 -2.86768,-1.14888 -4.30152,-1.72332 -0.90017,-0.16134 -2.50135,-0.57 -2.98095,-0.55208 2.06518,0.6723 4.30747,1.18413 6.46026,1.77578 1.11054,0.29875 -0.6419,-0.20416 -1.01576,-0.33033 -1.80257,-0.55909 -3.59023,-1.13725 -5.49906,-1.59716 2.05063,0.65476 4.18952,1.23154 6.26353,1.86581 -0.88949,-0.29055 -1.53092,-0.73843 -2.27333,-1.11539 -0.80995,-0.55176 -1.49728,-1.14873 -2.28069,-1.70996 -0.74268,-0.5657 -1.3611,-1.22658 -1.18328,-1.9291 0.0659,-1.59156 -3.03967,1.10049 -2.93985,-0.49086 -2.17696,-0.57178 -1.37442,-5.42783 -3.55135,-5.99961 z"
         id="path3496"
         sodipodi:nodetypes="cccccccccccccccccccc"
         inkscape:connector-curvature="0" />
      <path
         sodipodi:nodetypes="cccccccccccccccccccc"
         id="path3500"
         d="m 180,135 c 0.11801,1.87989 3.41233,2.38583 3.55135,4.26412 0.33547,1.08066 -1.63502,3.28792 -0.56378,4.19047 1.40023,1.04337 3.38061,1.84451 5.59583,2.38365 1.30468,0.35416 2.62318,0.69882 3.85767,1.1163 -2.10446,-0.6065 -4.16944,-1.24837 -6.26177,-1.86578 1.43147,0.65183 2.75067,1.42403 4.53566,1.82018 1.12358,0.12967 2.33802,0.044 3.37613,0.35332 1.25155,0.26735 -0.4978,-0.3115 -0.78909,-0.45604 -1.43385,-0.57444 -2.86768,-1.14888 -4.30152,-1.72332 -0.90017,-0.16134 -2.50135,-0.57 -2.98095,-0.55208 2.06518,0.6723 4.30747,1.18413 6.46026,1.77578 1.11054,0.29875 -0.6419,-0.20416 -1.01576,-0.33033 -1.80257,-0.55909 -3.59023,-1.13725 -5.49906,-1.59716 2.05063,0.65476 4.18952,1.23154 6.26353,1.86581 -0.88949,-0.29055 -1.53092,-0.73843 -2.27333,-1.11539 -0.80995,-0.55176 -1.49728,-1.14873 -2.28069,-1.70996 -0.74268,-0.5657 -4.3915,-3.98149 -4.21368,-4.68401 C 183.52669,137.144 179.90018,136.59135 180,135 c -2.17696,-0.57178 2.17693,0.57178 0,0 z"
         style="fill:#000000;fill-opacity:1;stroke:#000000;stroke-width:0.80483049;stroke-linecap:butt;stroke-linejoin:bevel;stroke-miterlimit:4;stroke-opacity:1;stroke-dasharray:none;stroke-dashoffset:0"
         inkscape:connector-curvature="0" />
    </g>
    <path
       transform="matrix(0.16,0,0,0.16,134.75,52.796192)"
       d="m 236.25,67.5 c 0,6.213203 -5.0368,11.25 -11.25,11.25 -6.2132,0 -11.25,-5.036797 -11.25,-11.25 0,-6.213203 5.0368,-11.25 11.25,-11.25 6.2132,0 11.25,5.036797 11.25,11.25 z"
       sodipodi:ry="11.25"
       sodipodi:rx="11.25"
       sodipodi:cy="67.5"
       sodipodi:cx="225"
       id="path3705"
       style="fill:#000000;fill-opacity:1;stroke:#000000;stroke-width:0.625;stroke-linecap:butt;stroke-linejoin:bevel;stroke-miterlimit:4;stroke-opacity:1;stroke-dasharray:none;stroke-dashoffset:0"
       sodipodi:type="arc" />
    <path
       transform="matrix(0.16,0,0,0.16,129.13808,54.9)"
       d="m 236.25,67.5 c 0,6.213203 -5.0368,11.25 -11.25,11.25 -6.2132,0 -11.25,-5.036797 -11.25,-11.25 0,-6.213203 5.0368,-11.25 11.25,-11.25 6.2132,0 11.25,5.036797 11.25,11.25 z"
       sodipodi:ry="11.25"
       sodipodi:rx="11.25"
       sodipodi:cy="67.5"
       sodipodi:cx="225"
       id="path3707"
       style="fill:#000000;fill-opacity:1;stroke:#000000;stroke-width:0.625;stroke-linecap:butt;stroke-linejoin:bevel;stroke-miterlimit:4;stroke-opacity:1;stroke-dasharray:none;stroke-dashoffset:0"
       sodipodi:type="arc" />
  </g>
</svg>
